<svg preserveAspectRatio="none" width="100%" height="100%" overflow="visible" style="display: block;" viewBox="0 0 14.1241 16" fill="none" xmlns="http://www.w3.org/2000/svg">
<g id="logos:tiktok-icon" clip-path="url(#clip0_0_22)">
<path id="Vector" d="M10.4673 5.76182C11.4978 6.4981 12.7603 6.93131 14.1238 6.93131V4.30897C13.8657 4.30907 13.6083 4.28214 13.3559 4.22864V6.2928C11.9925 6.2928 10.7302 5.85964 9.69947 5.12342V10.4749C9.69947 13.1521 7.52811 15.3221 4.84982 15.3221C3.85048 15.3221 2.9216 15.0201 2.15001 14.5022C3.03067 15.4023 4.25881 15.9606 5.61749 15.9606C8.296 15.9606 10.4674 13.7905 10.4674 11.1133V5.76182H10.4673ZM11.4146 3.11619C10.8879 2.54113 10.5421 1.79796 10.4673 0.976331V0.639063H9.73964C9.92281 1.68331 10.5476 2.57545 11.4146 3.11619ZM3.84403 12.4479C3.54976 12.0624 3.3907 11.5906 3.39145 11.1056C3.39145 9.88121 4.38461 8.88844 5.60993 8.88844C5.83825 8.88832 6.06522 8.92336 6.28287 8.99233V6.31134C6.02852 6.27652 5.77186 6.26168 5.51531 6.26715V8.35388C5.29755 8.28489 5.07046 8.24986 4.84204 8.25004C3.61677 8.25004 2.62367 9.2427 2.62367 10.4673C2.62367 11.3331 3.12005 12.0828 3.84403 12.4479Z" fill="var(--fill-0, #FF004F)"/>
<path id="Vector_2" d="M9.69884 5.12337C10.7296 5.85959 11.9918 6.29274 13.3552 6.29274V4.22858C12.5942 4.06654 11.9205 3.66908 11.4139 3.11619C10.5469 2.57539 9.92218 1.68326 9.73901 0.639063H7.82767V11.1132C7.82331 12.3342 6.83186 13.3229 5.60919 13.3229C4.88874 13.3229 4.24863 12.9797 3.84328 12.4479C3.11942 12.0828 2.62298 11.3331 2.62298 10.4673C2.62298 9.24287 3.61608 8.2501 4.84135 8.2501C5.07611 8.2501 5.30237 8.28662 5.51462 8.35393V6.2672C2.88334 6.32154 0.7672 8.4704 0.7672 11.1132C0.7672 12.4325 1.29415 13.6285 2.14943 14.5023C2.92102 15.0201 3.84985 15.3222 4.84924 15.3222C7.52759 15.3222 9.6989 13.152 9.6989 10.4749L9.69884 5.12337Z" fill="var(--fill-0, black)"/>
<path id="Vector_3" d="M13.3559 4.22786V3.66985C12.6696 3.67084 11.9969 3.47875 11.4146 3.11553C11.93 3.67951 12.6087 4.06843 13.3559 4.22797M9.73959 0.638345C9.72214 0.53857 9.70874 0.438129 9.69942 0.337269V0H7.0603V10.4742C7.05611 11.6952 6.06466 12.6839 4.84193 12.6839C4.4953 12.6844 4.1534 12.6034 3.84386 12.4473C4.24921 12.979 4.88932 13.3222 5.60977 13.3222C6.83239 13.3222 7.82394 12.3336 7.82825 11.1126V0.6384L9.73959 0.638345ZM5.51537 6.26648V5.67233C5.29483 5.64222 5.07251 5.62714 4.84993 5.6272C2.17131 5.6272 0 7.79735 0 10.4742C0 12.1525 0.853352 13.6316 2.15012 14.5016C1.29484 13.6278 0.76789 12.4317 0.76789 11.1125C0.76789 8.46974 2.88397 6.32083 5.51537 6.26648Z" fill="var(--fill-0, #00F2EA)"/>
</g>
<defs>
<clipPath id="clip0_0_22">
<rect width="14.1241" height="16" fill="white"/>
</clipPath>
</defs>
</svg>
